<svg width="40" height="40" viewBox="0 0 40 40" fill="none" xmlns="http://www.w3.org/2000/svg">
<rect x="13.1548" y="7.61902" width="13.6905" height="2.38095" rx="1.19048" fill="currentColor"/>
<path fill-rule="evenodd" clip-rule="evenodd" d="M9.25607 6.42856L13.4823 6.42856C14.0826 6.42856 14.6303 6.65353 15.0458 7.02376L17.8779 7.02376C17.1805 5.2797 15.4753 4.04761 13.4823 4.04761L9.25607 4.04761C6.64258 4.04761 4.52393 6.16626 4.52393 8.77975C4.52393 11.3932 6.64258 13.5119 9.25607 13.5119L13.4823 13.5119C15.4526 13.5119 17.1416 12.3077 17.8536 10.5952L14.9764 10.5952C14.5702 10.9299 14.0497 11.1309 13.4823 11.1309L9.25607 11.1309C7.95754 11.1309 6.90488 10.0783 6.90488 8.77975C6.90488 7.48122 7.95754 6.42856 9.25607 6.42856ZM15.4924 9.99995L18.0556 9.99995C18.1592 9.61067 18.2144 9.20166 18.2144 8.77975C18.2144 8.37927 18.1647 7.9904 18.071 7.619L15.5274 7.619C15.7222 7.96145 15.8334 8.35761 15.8334 8.77975C15.8334 9.22655 15.7088 9.64424 15.4924 9.99995Z" fill="currentColor"/>
<rect x="13.1548" y="19.4642" width="13.6905" height="2.38095" rx="1.19048" fill="currentColor"/>
<path fill-rule="evenodd" clip-rule="evenodd" d="M30.7439 18.2738L26.5177 18.2738C25.9174 18.2738 25.3696 18.4988 24.9541 18.869L22.1221 18.869C22.8194 17.1249 24.5247 15.8928 26.5177 15.8928L30.7439 15.8928C33.3574 15.8928 35.4761 18.0115 35.4761 20.625C35.4761 23.2385 33.3574 25.3571 30.7439 25.3571L26.5177 25.3571C24.5475 25.3571 22.8584 24.153 22.1464 22.4405L25.0236 22.4405C25.4298 22.7752 25.9503 22.9762 26.5177 22.9762L30.7439 22.9762C32.0424 22.9762 33.0951 21.9235 33.0951 20.625C33.0951 19.3264 32.0424 18.2738 30.7439 18.2738ZM24.4725 19.4643C24.2778 19.8067 24.1665 20.2028 24.1665 20.625C24.1665 21.0718 24.2912 21.4895 24.5076 21.8452L21.9444 21.8452C21.8408 21.4559 21.7856 21.0469 21.7856 20.625C21.7856 20.2245 21.8353 19.8357 21.929 19.4643L24.4725 19.4643ZM17.8779 18.869C17.1806 17.125 15.4753 15.8928 13.4823 15.8928L9.25607 15.8928C6.64258 15.8928 4.52393 18.0115 4.52393 20.625C4.52393 23.2385 6.64258 25.3571 9.25607 25.3571L13.4823 25.3571C15.4526 25.3571 17.1416 24.153 17.8536 22.4405L14.9764 22.4405C14.5702 22.7752 14.0497 22.9762 13.4823 22.9762L9.25607 22.9762C7.95754 22.9762 6.90488 21.9235 6.90488 20.625C6.90488 19.3265 7.95754 18.2738 9.25607 18.2738L13.4823 18.2738C14.0826 18.2738 14.6303 18.4988 15.0458 18.869L17.8779 18.869ZM15.5274 19.4643L18.071 19.4643C18.1647 19.8357 18.2144 20.2245 18.2144 20.625C18.2144 21.0469 18.1592 21.4559 18.0556 21.8452L15.4924 21.8452C15.7088 21.4895 15.8334 21.0718 15.8334 20.625C15.8334 20.2029 15.7222 19.8067 15.5274 19.4643Z" fill="currentColor"/>
<path fill-rule="evenodd" clip-rule="evenodd" d="M13.4823 30.119L9.25607 30.119C7.95754 30.119 6.90488 31.1717 6.90488 32.4702C6.90488 33.7687 7.95754 34.8214 9.25607 34.8214L13.4823 34.8214C14.7808 34.8214 15.8334 33.7687 15.8334 32.4702C15.8334 31.1717 14.7808 30.119 13.4823 30.119ZM9.25607 27.738C6.64258 27.738 4.52393 29.8567 4.52393 32.4702C4.52393 35.0837 6.64258 37.2023 9.25607 37.2023L13.4823 37.2023C16.0957 37.2023 18.2144 35.0837 18.2144 32.4702C18.2144 29.8567 16.0957 27.738 13.4823 27.738L9.25607 27.738Z" fill="currentColor"/>
</svg>
